<svg xmlns="http://www.w3.org/2000/svg" width="22.46" height="16.845" viewBox="0 0 22.46 16.845"><defs><style>.a{fill:#fff;opacity:0.6;}</style></defs><path class="a" d="M20.588,4.5H1.872A1.877,1.877,0,0,0,0,6.372v13.1a1.877,1.877,0,0,0,1.872,1.872H20.588a1.869,1.869,0,0,0,1.862-1.872l.009-13.1A1.877,1.877,0,0,0,20.588,4.5ZM7.487,7.307a2.807,2.807,0,1,1-2.807,2.807A2.8,2.8,0,0,1,7.487,7.307ZM13.1,18.537H1.872V17.6c0-1.872,3.743-2.9,5.615-2.9S13.1,15.73,13.1,17.6Zm3.6-3.743h1.535l1.413,1.872L17.79,18.528a7.029,7.029,0,0,1-2.555-3.734,6.815,6.815,0,0,1,0-3.743A6.994,6.994,0,0,1,17.79,7.317l1.862,1.862-1.413,1.872H16.7a5.511,5.511,0,0,0,0,3.743Z" transform="translate(0 -4.5)"/></svg>