<svg xmlns="http://www.w3.org/2000/svg" width="20.667" height="20.667" viewBox="0 0 20.667 20.667"><defs><style>.a{fill:#8dc63f;}</style></defs><path class="a" d="M8.656,13.444a17.393,17.393,0,0,0,7.566,7.566l2.526-2.526a1.142,1.142,0,0,1,1.171-.276,13.1,13.1,0,0,0,4.1.654,1.152,1.152,0,0,1,1.148,1.148v4.007a1.152,1.152,0,0,1-1.148,1.148A19.517,19.517,0,0,1,4.5,5.648,1.152,1.152,0,0,1,5.648,4.5H9.667a1.152,1.152,0,0,1,1.148,1.148,13.044,13.044,0,0,0,.654,4.1,1.152,1.152,0,0,1-.287,1.171Z" transform="translate(-4.5 -4.5)"/></svg>