<svg xmlns="http://www.w3.org/2000/svg" width="23.148" height="23.148" viewBox="0 0 23.148 23.148"><defs><style>.a{fill:#8dc63f;}</style></defs><path class="a" d="M2.894,5.787H1.447A1.447,1.447,0,0,0,0,7.234V21.7a1.447,1.447,0,0,0,1.447,1.447H2.894A1.447,1.447,0,0,0,4.34,21.7V7.234A1.447,1.447,0,0,0,2.894,5.787ZM21.7,7.234V3.493a1.448,1.448,0,0,0-.424-1.023L19.232.424A1.447,1.447,0,0,0,18.209,0H7.234A1.447,1.447,0,0,0,5.787,1.447V21.7a1.447,1.447,0,0,0,1.447,1.447H21.7A1.447,1.447,0,0,0,23.148,21.7V8.681A1.447,1.447,0,0,0,21.7,7.234Zm-8.681,12.3a.723.723,0,0,1-.723.723H10.851a.723.723,0,0,1-.723-.723V18.085a.723.723,0,0,1,.723-.723H12.3a.723.723,0,0,1,.723.723Zm0-5.787a.723.723,0,0,1-.723.723H10.851a.723.723,0,0,1-.723-.723V12.3a.723.723,0,0,1,.723-.723H12.3a.723.723,0,0,1,.723.723Zm5.787,5.787a.723.723,0,0,1-.723.723H16.638a.723.723,0,0,1-.723-.723V18.085a.723.723,0,0,1,.723-.723h1.447a.723.723,0,0,1,.723.723Zm0-5.787a.723.723,0,0,1-.723.723H16.638a.723.723,0,0,1-.723-.723V12.3a.723.723,0,0,1,.723-.723h1.447a.723.723,0,0,1,.723.723Zm.723-5.064H7.957V2.17h9.4V3.617a.723.723,0,0,0,.723.723h1.447Z"/></svg>