<svg xmlns="http://www.w3.org/2000/svg" width="19.688" height="19.688" viewBox="0 0 19.688 19.688"><defs><style>.a{fill:#fff;}</style></defs><path class="a" d="M13.219,3.375a9.844,9.844,0,1,0,9.844,9.844A9.842,9.842,0,0,0,13.219,3.375Zm-.2,14.387a.976.976,0,1,1,1.018-.975A.988.988,0,0,1,13.015,17.762Zm1.9-4.586c-.823.478-1.1.828-1.1,1.434v.374H12.173l-.014-.407a1.97,1.97,0,0,1,1.117-2.082c.8-.478,1.136-.781,1.136-1.368a1.149,1.149,0,0,0-1.273-1.018,1.2,1.2,0,0,0-1.268,1.164H10.19c.033-1.524,1.159-2.6,3.062-2.6,1.775,0,3,.984,3,2.4A2.316,2.316,0,0,1,14.918,13.176Z" transform="translate(-3.375 -3.375)"/></svg>