<svg xmlns="http://www.w3.org/2000/svg" width="17.693" height="23.591" viewBox="0 0 17.693 23.591"><defs><style>.a{fill:#8dc63f;}</style></defs><path class="a" d="M8.381,11.8a4.445,4.445,0,0,1-.092-2.161C8.676,9.639,8.639,11.339,8.381,11.8ZM8.3,13.975a21.261,21.261,0,0,1-1.309,2.889,16.967,16.967,0,0,1,2.9-1.009A5.969,5.969,0,0,1,8.3,13.975Zm-4.336,5.75c0,.037.608-.249,1.608-1.852A6.368,6.368,0,0,0,3.967,19.725Zm7.46-12.353h6.266V22.485a1.1,1.1,0,0,1-1.106,1.106H1.106A1.1,1.1,0,0,1,0,22.485V1.106A1.1,1.1,0,0,1,1.106,0h9.215V6.266A1.109,1.109,0,0,0,11.427,7.372Zm-.369,7.916a4.625,4.625,0,0,1-1.967-2.479,6.623,6.623,0,0,0,.286-2.958,1.154,1.154,0,0,0-2.2-.313,7.661,7.661,0,0,0,.373,3.548,43.267,43.267,0,0,1-1.88,3.953s0,0-.009,0c-1.249.64-3.391,2.05-2.511,3.133a1.432,1.432,0,0,0,.991.461c.825,0,1.645-.829,2.815-2.848a26.264,26.264,0,0,1,3.64-1.069,6.983,6.983,0,0,0,2.949.9,1.193,1.193,0,0,0,.908-2C13.809,14.993,11.948,15.173,11.058,15.288Zm6.312-10.45L12.855.323A1.105,1.105,0,0,0,12.072,0H11.8V5.9h5.9V5.617A1.1,1.1,0,0,0,17.371,4.838ZM13.957,16.6c.189-.124-.115-.548-1.972-.415C13.694,16.915,13.957,16.6,13.957,16.6Z"/></svg>