<svg xmlns="http://www.w3.org/2000/svg" width="20.237" height="20.805" viewBox="0 0 20.237 20.805"><defs><style>.a{fill:#fff;opacity:0.6;}</style></defs><path class="a" d="M21.256,14.422a7.172,7.172,0,0,0,0-2.039l2.195-1.716A.525.525,0,0,0,23.575,10l-2.08-3.6a.523.523,0,0,0-.635-.229l-2.59,1.04a7.6,7.6,0,0,0-1.758-1.019l-.4-2.757A.507.507,0,0,0,15.607,3H11.446a.507.507,0,0,0-.51.437l-.4,2.757A7.992,7.992,0,0,0,8.783,7.213l-2.59-1.04a.507.507,0,0,0-.635.229L3.478,10a.513.513,0,0,0,.125.666L5.8,12.383A8.25,8.25,0,0,0,5.725,13.4,8.25,8.25,0,0,0,5.8,14.422L3.6,16.138a.525.525,0,0,0-.125.666l2.08,3.6a.523.523,0,0,0,.635.229l2.59-1.04a7.6,7.6,0,0,0,1.758,1.019l.4,2.757a.507.507,0,0,0,.51.437h4.161a.507.507,0,0,0,.51-.437l.4-2.757a7.992,7.992,0,0,0,1.758-1.019l2.59,1.04a.507.507,0,0,0,.635-.229l2.08-3.6a.525.525,0,0,0-.125-.666l-2.195-1.716Zm-7.729,2.621A3.641,3.641,0,1,1,17.168,13.4,3.645,3.645,0,0,1,13.527,17.043Z" transform="translate(-3.406 -3)"/></svg>