<svg xmlns="http://www.w3.org/2000/svg" width="24.469" height="18.355" viewBox="0 0 24.469 18.355"><defs><style>.a{fill:#8dc63f;}</style></defs><path class="a" d="M24.309,8.553a3.715,3.715,0,0,0-3.537-3.881c-2.648-.124-5.348-.172-8.106-.172h-.86c-2.753,0-5.458.048-8.106.172A3.724,3.724,0,0,0,.167,8.563c-.119,1.7-.172,3.4-.167,5.1s.048,3.4.163,5.11a3.728,3.728,0,0,0,3.532,3.9c2.782.129,5.635.186,8.537.182s5.75-.048,8.537-.182a3.729,3.729,0,0,0,3.537-3.9c.115-1.706.167-3.408.163-5.114S24.424,10.26,24.309,8.553Zm-14.416,9.8V8.964l6.931,4.694Z" transform="translate(0 -4.5)"/></svg>